<svg width="245" height="245" viewBox="0 0 245 245" fill="none" xmlns="http://www.w3.org/2000/svg">
<path d="M122.343 244.455C189.726 244.455 244.35 189.831 244.35 122.448C244.35 55.0655 189.726 0.441101 122.343 0.441101C54.9604 0.441101 0.33606 55.0655 0.33606 122.448C0.33606 189.831 54.9604 244.455 122.343 244.455Z" fill="url(#paint0_linear_5_2)"/>
<path d="M146.401 168.846C146.401 183.082 134.861 194.622 120.625 194.622C106.389 194.622 94.849 183.082 94.849 168.846V79.4891C94.849 65.2531 106.389 53.713 120.625 53.713C134.861 53.713 146.401 65.2541 146.401 79.4891V168.846Z" fill="white"/>
<path d="M191.08 124.167C191.08 138.403 179.54 149.943 165.304 149.943H75.947C61.711 149.943 50.171 138.402 50.171 124.167C50.171 109.931 61.711 98.3912 75.947 98.3912H165.304C179.539 98.3912 191.08 109.931 191.08 124.167Z" fill="white"/>
<defs>
<linearGradient id="paint0_linear_5_2" x1="0.33616" y1="122.449" x2="244.35" y2="122.449" gradientUnits="userSpaceOnUse">
<stop offset="0.421" stop-color="#E46C19"/>
<stop offset="1" stop-color="#0B0F1A"/>
</linearGradient>
</defs>
</svg>
